<?xml version="1.0" encoding="UTF-8"?>
<svg id="Ebene_2" data-name="Ebene 2" xmlns="http://www.w3.org/2000/svg" viewBox="0 0 371.42 348.98">
  <defs>
    <style>
      .cls-1, .cls-2 {
        fill: #eaeaea;
        stroke-width: 0px;
      }

      .cls-2 {
        fill-rule: evenodd;
      }
    </style>
  </defs>
  <g id="Layer_1" data-name="Layer 1">
    <g>
      <g>
        <path class="cls-2" d="M185.71,276.85l-105.67-11.74v-120.35h-11.74v132.1h117.41l105.67-11.74v-120.35h11.74v132.1h-117.41ZM185.71,276.85l-58.71-58.71v-112.52l-11.74-7.83v132.09l70.45,46.97,70.45-46.97V97.79l-11.74,7.83v112.52l-58.71,58.71-93.93-23.44V121.27l11.74,2.94v117.42l82.19,35.23,93.93-23.44V121.27l-11.74,2.94v117.42l-82.19,35.23Z"/>
        <g>
          <rect class="cls-1" x="171.03" y="83.11" width="11.74" height="11.74"/>
          <rect class="cls-1" x="171.03" y="100.72" width="11.74" height="11.74"/>
          <rect class="cls-1" x="188.64" y="100.72" width="11.74" height="11.74"/>
          <rect class="cls-1" x="188.64" y="83.11" width="11.74" height="11.74"/>
        </g>
        <polygon class="cls-2" points="314.85 129.17 314.85 145.75 303.11 134.01 185.73 16.63 68.31 134.05 56.57 145.75 56.57 129.17 185.73 0 303.11 117.38 314.85 129.17"/>
      </g>
      <g>
        <path class="cls-1" d="M33.6,338.35c0,6.33-5.02,10-14.66,10H0v-36.64h17.9c9.16,0,13.87,3.82,13.87,9.53,0,3.66-1.88,6.49-4.87,8.06,4.08,1.31,6.7,4.45,6.7,9.06ZM8.43,318.09v8.64h8.43c4.14,0,6.39-1.47,6.39-4.34s-2.25-4.29-6.39-4.29h-8.43ZM25.07,337.46c0-3.09-2.36-4.55-6.75-4.55h-9.89v9.06h9.89c4.4,0,6.75-1.36,6.75-4.5Z"/>
        <path class="cls-1" d="M37.74,330.03c0-10.89,8.48-18.95,20.05-18.95s20.05,8.01,20.05,18.95-8.53,18.95-20.05,18.95-20.05-8.06-20.05-18.95ZM69.25,330.03c0-6.96-4.92-11.73-11.46-11.73s-11.46,4.76-11.46,11.73,4.92,11.73,11.46,11.73,11.46-4.76,11.46-11.73Z"/>
        <path class="cls-1" d="M81.92,330.03c0-10.89,8.48-18.95,20.05-18.95s20.05,8.01,20.05,18.95-8.53,18.95-20.05,18.95-20.05-8.06-20.05-18.95ZM113.43,330.03c0-6.96-4.92-11.73-11.46-11.73s-11.46,4.76-11.46,11.73,4.92,11.73,11.46,11.73,11.46-4.76,11.46-11.73Z"/>
        <path class="cls-1" d="M141.74,333.95l-4.92,5.13v9.26h-8.43v-36.64h8.43v17.12l16.23-17.12h9.42l-15.18,16.33,16.07,20.31h-9.89l-11.72-14.39Z"/>
        <path class="cls-1" d="M215.54,311.71v36.64h-8.48v-15.02h-16.65v15.02h-8.48v-36.64h8.48v14.45h16.65v-14.45h8.48Z"/>
        <path class="cls-1" d="M221.93,330.03c0-10.89,8.48-18.95,20.05-18.95s20.05,8.01,20.05,18.95-8.53,18.95-20.05,18.95-20.05-8.06-20.05-18.95ZM253.44,330.03c0-6.96-4.92-11.73-11.46-11.73s-11.46,4.76-11.46,11.73,4.92,11.73,11.46,11.73,11.46-4.76,11.46-11.73Z"/>
        <path class="cls-1" d="M268.09,332.23v-20.52h8.48v20.21c0,6.96,3.04,9.84,8.17,9.84s8.17-2.88,8.17-9.84v-20.21h8.38v20.52c0,10.78-6.18,16.75-16.59,16.75s-16.59-5.97-16.59-16.75Z"/>
        <path class="cls-1" d="M306.77,344.74l2.88-6.39c3.09,2.25,7.69,3.82,12.09,3.82,5.02,0,7.07-1.68,7.07-3.93,0-6.86-21.3-2.15-21.3-15.76,0-6.23,5.02-11.41,15.44-11.41,4.61,0,9.32,1.1,12.72,3.25l-2.62,6.44c-3.4-1.94-6.91-2.88-10.16-2.88-5.02,0-6.96,1.88-6.96,4.19,0,6.75,21.3,2.09,21.3,15.55,0,6.12-5.08,11.36-15.55,11.36-5.81,0-11.67-1.73-14.92-4.24Z"/>
        <path class="cls-1" d="M371.42,341.54v6.8h-28.37v-36.64h27.69v6.81h-19.26v7.96h17.01v6.6h-17.01v8.48h19.94Z"/>
      </g>
    </g>
  </g>
</svg>