<?xml version="1.0" encoding="UTF-8"?>
<svg id="Ebene_2" data-name="Ebene 2" xmlns="http://www.w3.org/2000/svg" viewBox="0 0 641.72 602.95">
  <defs>
    <style>
      .cls-1 {
        fill-rule: evenodd;
      }

      .cls-1, .cls-2 {
        fill: #e47a63;
      }

      .cls-1, .cls-2, .cls-3 {
        stroke-width: 0px;
      }

      .cls-3 {
        fill: #bc757f;
      }
    </style>
  </defs>
  <g id="Layer_1" data-name="Layer 1">
    <g>
      <g>
        <path class="cls-1" d="M320.86,478.32l-182.58-20.29v-207.94h-20.29v228.23h202.86l182.58-20.29v-207.94h20.29v228.23h-202.86ZM320.86,478.32l-101.43-101.43v-194.41l-20.29-13.53v228.23l121.72,81.15,121.72-81.15v-228.23l-20.29,13.53v194.41l-101.43,101.43-162.29-40.5v-228.3l20.29,5.07v202.87l142,60.86,162.29-40.5v-228.3l-20.29,5.07v202.87l-142.01,60.86Z"/>
        <g>
          <rect class="cls-2" x="295.5" y="143.59" width="20.29" height="20.29"/>
          <rect class="cls-2" x="295.5" y="174.02" width="20.29" height="20.29"/>
          <rect class="cls-2" x="325.93" y="174.02" width="20.29" height="20.29"/>
          <rect class="cls-2" x="325.93" y="143.59" width="20.29" height="20.29"/>
        </g>
        <polygon class="cls-1" points="543.99 223.17 543.99 251.82 523.7 231.53 320.9 28.73 118.02 231.61 97.73 251.82 97.73 223.17 320.9 0 523.7 202.8 543.99 223.17"/>
      </g>
      <g>
        <path class="cls-3" d="M58.06,584.59c0,10.94-8.68,17.27-25.32,17.27H0v-63.31h30.93c15.83,0,23.97,6.6,23.97,16.46,0,6.33-3.26,11.21-8.41,13.93,7.05,2.26,11.58,7.69,11.58,15.65ZM14.56,549.59v14.92h14.56c7.14,0,11.03-2.53,11.03-7.51s-3.89-7.42-11.03-7.42h-14.56ZM43.32,583.05c0-5.34-4.07-7.87-11.67-7.87H14.56v15.65h17.09c7.6,0,11.67-2.35,11.67-7.78Z"/>
        <path class="cls-3" d="M65.2,570.21c0-18.81,14.65-32.74,34.64-32.74s34.64,13.84,34.64,32.74-14.74,32.74-34.64,32.74-34.64-13.93-34.64-32.74ZM119.65,570.21c0-12.03-8.5-20.26-19.81-20.26s-19.81,8.23-19.81,20.26,8.5,20.26,19.81,20.26,19.81-8.23,19.81-20.26Z"/>
        <path class="cls-3" d="M141.53,570.21c0-18.81,14.65-32.74,34.64-32.74s34.64,13.84,34.64,32.74-14.74,32.74-34.64,32.74-34.64-13.93-34.64-32.74ZM195.97,570.21c0-12.03-8.5-20.26-19.81-20.26s-19.81,8.23-19.81,20.26,8.5,20.26,19.81,20.26,19.81-8.23,19.81-20.26Z"/>
        <path class="cls-3" d="M244.9,576.99l-8.5,8.86v16.01h-14.56v-63.31h14.56v29.57l28.04-29.57h16.28l-26.23,28.22,27.76,35.09h-17.09l-20.26-24.87Z"/>
        <path class="cls-3" d="M372.41,538.55v63.31h-14.65v-25.96h-28.76v25.96h-14.65v-63.31h14.65v24.96h28.76v-24.96h14.65Z"/>
        <path class="cls-3" d="M383.44,570.21c0-18.81,14.65-32.74,34.64-32.74s34.64,13.84,34.64,32.74-14.74,32.74-34.64,32.74-34.64-13.93-34.64-32.74ZM437.88,570.21c0-12.03-8.5-20.26-19.81-20.26s-19.81,8.23-19.81,20.26,8.5,20.26,19.81,20.26,19.81-8.23,19.81-20.26Z"/>
        <path class="cls-3" d="M463.2,574.01v-35.45h14.65v34.91c0,12.03,5.25,17,14.11,17s14.11-4.97,14.11-17v-34.91h14.47v35.45c0,18.63-10.67,28.94-28.67,28.94s-28.67-10.31-28.67-28.94Z"/>
        <path class="cls-3" d="M530.03,595.62l4.97-11.03c5.34,3.89,13.29,6.6,20.89,6.6,8.68,0,12.21-2.89,12.21-6.78,0-11.85-36.81-3.71-36.81-27.22,0-10.76,8.68-19.72,26.68-19.72,7.96,0,16.1,1.9,21.98,5.61l-4.52,11.12c-5.88-3.35-11.94-4.97-17.55-4.97-8.68,0-12.03,3.26-12.03,7.24,0,11.67,36.81,3.62,36.81,26.86,0,10.58-8.77,19.63-26.86,19.63-10.04,0-20.17-2.98-25.77-7.33Z"/>
        <path class="cls-3" d="M641.72,590.1v11.76h-49.02v-63.31h47.84v11.76h-33.28v13.75h29.39v11.4h-29.39v14.65h34.46Z"/>
      </g>
    </g>
  </g>
</svg>